<?xml version="1.0" encoding="UTF-8" standalone="no"?>
<!-- Created with Inkscape (http://www.inkscape.org/) -->

<svg
   xmlns:dc="http://purl.org/dc/elements/1.1/"
   xmlns:cc="http://creativecommons.org/ns#"
   xmlns:rdf="http://www.w3.org/1999/02/22-rdf-syntax-ns#"
   xmlns:svg="http://www.w3.org/2000/svg"
   xmlns="http://www.w3.org/2000/svg"
   xmlns:sodipodi="http://sodipodi.sourceforge.net/DTD/sodipodi-0.dtd"
   xmlns:inkscape="http://www.inkscape.org/namespaces/inkscape"
   width="165.47955mm"
   height="52.755009mm"
   viewBox="0 0 165.47955 52.755009"
   version="1.1"
   id="svg8"
   inkscape:version="0.92.4 (5da689c313, 2019-01-14)"
   sodipodi:docname="LogoTC.svg">
  <defs
     id="defs2" />
  <sodipodi:namedview
     id="base"
     pagecolor="#ffffff"
     bordercolor="#666666"
     borderopacity="1.0"
     inkscape:pageopacity="0.0"
     inkscape:pageshadow="2"
     inkscape:zoom="0.98994949"
     inkscape:cx="-16.453535"
     inkscape:cy="105.26304"
     inkscape:document-units="mm"
     inkscape:current-layer="layer1"
     showgrid="false"
     inkscape:window-width="1920"
     inkscape:window-height="1017"
     inkscape:window-x="-8"
     inkscape:window-y="-8"
     inkscape:window-maximized="1" />
  <metadata
     id="metadata5">
    <rdf:RDF>
      <cc:Work
         rdf:about="">
        <dc:format>image/svg+xml</dc:format>
        <dc:type
           rdf:resource="http://purl.org/dc/dcmitype/StillImage" />
        <dc:title></dc:title>
      </cc:Work>
    </rdf:RDF>
  </metadata>
  <g
     inkscape:label="Layer 1"
     inkscape:groupmode="layer"
     id="layer1"
     transform="translate(-12.711521,-81.278001)">
    <path
       style="fill:#3b3b3b;stroke-width:0.16933332"
       d="m 30.101707,133.97074 c -6.520901,-0.77427 -11.639156,-4.69035 -13.86739,-10.61023 -0.729838,-1.939 -0.915565,-3.51248 -2.325004,-19.69753 -1.587265,-18.227086 -1.582149,-16.934054 -0.07298,-18.443223 0.607801,-0.6078 1.07701,-0.913141 1.618041,-1.052949 0.4191,-0.1083 5.2578,-0.584529 10.752666,-1.058287 5.494867,-0.473758 12.53759,-1.085781 15.650499,-1.36005 6.610695,-0.582451 7.700958,-0.602488 9.751698,-0.17922 6.119446,1.263038 10.779424,5.599348 12.537729,11.66689 0.412632,1.423905 0.528169,2.394861 1.172991,9.857659 0.593039,6.86348 1.388267,15.89531 1.795204,20.38909 0.448442,4.95209 0.252589,5.88662 -1.486225,7.09162 -0.904782,0.62701 -1.265284,0.67579 -11.566564,1.56518 -4.8895,0.42215 -11.922793,1.03182 -15.62954,1.35483 -6.501377,0.56653 -7.223105,0.60778 -8.331125,0.47622 z m 5.418666,-7.66064 c 0.780542,-0.36138 1.489647,-1.06502 1.80956,-1.79563 0.173934,-0.39722 0.240902,-3.09279 0.307107,-12.36133 l 0.08467,-11.85334 10.837333,-0.0847 10.837333,-0.0847 0.754482,-0.423336 c 0.414963,-0.232833 0.986463,-0.753665 1.27,-1.157405 l 0.515518,-0.734072 v -3.59689 -3.596891 l -0.461062,-0.604703 c -0.253586,-0.332587 -0.825086,-0.783953 -1.27,-1.003037 l -0.808938,-0.398335 -20.726269,-0.04624 c -21.842485,-0.04874 -22.090857,-0.04093 -23.257468,0.731099 -1.243663,0.823018 -1.31158,1.077591 -1.312295,4.918845 -7.46e-4,4.011809 0.143256,4.49576 1.607681,5.402967 l 0.820019,0.507998 3.908167,0.0847 3.908166,0.0847 0.08467,12.05055 0.08467,12.05055 0.508,0.72129 c 0.971053,1.37876 1.446986,1.49925 5.926666,1.50046 3.43556,8.5e-4 3.974511,-0.0359 4.572,-0.31254 z m -9.076625,-0.91 c -1.220126,-0.8151 -1.167485,-0.21647 -1.167778,-13.27985 l -2.63e-4,-11.7169 -0.408229,-0.47511 -0.408229,-0.475109 -3.952104,-0.08467 c -3.83437,-0.08214 -3.969087,-0.09678 -4.52217,-0.491248 -0.696708,-0.496905 -1.199235,-1.548591 -1.204216,-2.520176 l -0.0037,-0.725424 6.507146,0.04809 c 7.287898,0.05386 7.019354,0.0079 7.80152,1.335791 0.330308,0.560774 0.339804,0.9229 0.384769,14.671976 l 0.0461,14.09699 h -1.248728 c -1.016354,0 -1.3558,-0.0715 -1.824104,-0.38437 z m 6.114237,-13.45863 c 5.08e-4,-8.56245 0.06455,-14.071949 0.167677,-14.443184 0.0917,-0.330096 0.438389,-0.863496 0.770411,-1.185332 l 0.603676,-0.585156 13.537313,-0.0453 13.53731,-0.0453 v 0.858045 c 0,1.049299 -0.313487,1.691589 -1.129477,2.31414 l -0.621833,0.474419 -10.850678,0.08467 c -5.967873,0.04657 -10.973707,0.146009 -11.124075,0.220981 -0.638818,0.318515 -0.657936,0.683027 -0.657936,12.545027 v 11.56473 l -0.38522,0.72846 c -0.524842,0.99249 -1.250481,1.35681 -2.702472,1.35681 H 32.55704 l 10e-4,-13.843 z M 14.826502,92.164826 c 0.128564,-1.245667 0.555235,-1.941384 1.477142,-2.408582 l 0.756856,-0.383555 21.181154,0.04489 21.181154,0.04489 0.62196,0.47442 c 0.815513,0.622058 1.129604,1.264691 1.129604,2.311171 v 0.855076 H 37.952017 14.72966 Z m 45.079323,34.150504 c 0.853692,-0.38782 1.704541,-1.34484 1.935698,-2.17723 0.226529,-0.81573 0.232131,-5.69274 0.0075,-6.50155 -0.268104,-0.96519 -0.867434,-1.72579 -1.685532,-2.13908 -0.724169,-0.36584 -0.928385,-0.381 -5.132099,-0.381 -2.693986,0 -4.503902,-0.0674 -4.705453,-0.17529 -0.38326,-0.20512 -0.475591,-1.81025 -0.124335,-2.16151 0.147446,-0.14745 1.413556,-0.20422 4.614334,-0.20692 4.753725,-0.004 5.183176,-0.0737 6.144991,-0.99682 0.905092,-0.86871 0.975475,-1.21192 0.975475,-4.75679 0,-3.79566 -0.151919,-4.3328 -1.472646,-5.20682 l -0.703954,-0.46585 h -9.5074 -9.507399 l -0.690621,0.45703 c -0.461629,0.30549 -0.838211,0.75869 -1.135744,1.36683 l -0.445123,0.9098 0.04744,10.24503 0.04744,10.24503 0.476567,0.71998 c 0.329942,0.49847 0.746727,0.84577 1.354666,1.12882 l 0.8781,0.40884 8.974666,-0.002 c 8.31672,-0.002 9.024429,-0.0247 9.653453,-0.31043 z m -19.223427,-0.8444 c -0.324514,-0.17245 -0.761475,-0.56471 -0.971025,-0.87171 l -0.381,-0.55817 v -10.09526 c 0,-11.26587 -0.04574,-10.81606 1.185247,-11.65632 l 0.55817,-0.381 h 9.178582 9.178583 l 0.55817,0.381 c 0.840007,0.57338 1.185247,1.36179 1.185247,2.70669 v 1.14564 h -8.359163 c -8.200338,0 -8.367642,0.007 -8.805333,0.35096 l -0.44617,0.35096 v 7.01504 c 0,6.78927 0.01091,7.02594 0.338667,7.35371 0.329636,0.32964 0.564444,0.33867 8.805333,0.33867 h 8.466666 l -0.0028,1.143 c -0.0034,1.37594 -0.451868,2.29886 -1.349239,2.77637 -0.91012,0.48429 -18.228682,0.48467 -19.13995,3.4e-4 z m 7.029975,-6.6998 c -0.2794,-0.12471 -0.7366,-0.46945 -1.016,-0.76608 l -0.508,-0.53934 -0.05244,-3.40116 c -0.05632,-3.65355 0.005,-4.02479 0.784406,-4.74715 0.824391,-0.76406 1.228102,-0.80493 7.950841,-0.80493 h 6.346277 l -0.07928,0.82503 c -0.09463,0.98485 -0.587965,1.74012 -1.38307,2.11743 -0.487453,0.23131 -1.264509,0.27487 -4.902977,0.27487 -2.454217,0 -4.515068,0.0727 -4.766266,0.16826 -1.087059,0.4133 -1.25876,3.1902 -0.231257,3.7401 0.204492,0.10944 1.942616,0.17046 4.601523,0.16155 4.472049,-0.015 5.091533,0.0631 5.851058,0.73722 0.496504,0.44069 0.867176,1.27882 0.867176,1.96077 v 0.51344 l -6.477,-0.007 c -5.034027,-0.005 -6.590173,-0.0572 -6.984999,-0.23338 z m 113.489607,9.10984 c -0.0665,-0.0665 -0.12095,-1.74654 -0.12095,-3.73339 v -3.61244 h 0.67734 c 0.48226,0 0.67733,0.0715 0.67733,0.24829 0,0.19824 0.12101,0.17689 0.60036,-0.10593 1.36331,-0.80438 2.96596,0.11786 3.20327,1.84329 0.31417,2.28431 -1.24151,3.94206 -3.00707,3.20437 l -0.61286,-0.25607 -0.0495,1.21602 -0.0495,1.21603 -0.59872,0.0504 c -0.3293,0.0277 -0.65315,-0.004 -0.71967,-0.0705 z m 3.16205,-3.43016 c 0.8523,-0.94179 0.39963,-2.89967 -0.67043,-2.89967 -0.7031,0 -1.08857,0.55832 -1.08857,1.57673 0,1.4017 1.00421,2.15697 1.759,1.32294 z m -90.828325,1.27082 c -3.16229,-0.92198 -4.713088,-3.4915 -4.217844,-6.98855 0.46652,-3.29423 2.55464,-5.11408 6.038211,-5.26247 1.093859,-0.0466 1.908097,0.007 2.412966,0.15944 0.759861,0.22912 0.762124,0.23212 0.806018,1.06976 0.06117,1.16723 -0.08167,1.33644 -0.855299,1.0132 -0.800511,-0.33448 -2.663451,-0.33173 -3.469824,0.005 -1.398536,0.5842 -2.242748,1.8871 -2.369834,3.65744 -0.256884,3.57847 2.474009,5.41771 6.354606,4.2798 0.365238,-0.1071 0.381,-0.0696 0.381,0.90591 0,0.80846 -0.06091,1.04343 -0.296334,1.14316 -0.560627,0.23748 -3.985872,0.2498 -4.783666,0.0172 z m 80.179325,0.0844 c -0.44135,-0.0936 -0.51489,-0.19094 -0.56055,-0.74197 -0.0584,-0.70429 -0.0205,-0.72041 1.03147,-0.43905 1.00851,0.26973 1.73042,-0.0599 1.73042,-0.79014 0,-0.46277 -0.10903,-0.55803 -1.28394,-1.12175 -1.45913,-0.7001 -1.7897,-1.18003 -1.63048,-2.36714 0.17304,-1.29011 1.3663,-1.98214 3.07078,-1.78092 1.01665,0.12003 1.18017,0.26567 1.03589,0.92261 -0.1058,0.48169 -0.14192,0.50141 -0.65102,0.3554 -0.80052,-0.22958 -1.22221,-0.18981 -1.64867,0.15552 -0.66847,0.54129 -0.35859,1.07978 0.93863,1.63111 1.38806,0.58993 1.77747,1.05716 1.77747,2.13263 0,1.65284 -1.60169,2.51199 -3.81,2.0437 z m -74.928581,-0.0639 c 8.46e-4,-0.0233 0.789203,-2.06164 1.752061,-4.52967 l 1.750653,-4.48733 1.08427,-0.0462 1.084271,-0.0462 1.693334,4.35133 c 0.931333,2.39324 1.717971,4.45238 1.748082,4.57587 0.07512,0.30809 -1.983051,0.32084 -2.077903,0.0129 -0.03586,-0.11641 -0.197129,-0.57601 -0.358387,-1.02131 l -0.293194,-0.80964 -1.861815,0.0477 -1.861815,0.0476 -0.347316,0.97366 -0.347314,0.97367 h -0.98317 c -0.540742,0 -0.982533,-0.019 -0.981757,-0.0423 z m 5.755922,-3.66578 c 0,-0.20368 -1.043757,-3.11804 -1.170339,-3.26781 -0.05481,-0.0648 -0.376225,0.6781 -0.714248,1.651 l -0.614587,1.76892 h 1.249587 c 0.687273,0 1.249587,-0.0684 1.249587,-0.15211 z m 4.064,-0.88311 v -4.59121 l 2.328333,0.07 c 1.774671,0.0533 2.45882,0.13928 2.877072,0.3614 1.534085,0.81471 1.581365,2.94874 0.08743,3.94633 -0.359546,0.2401 -0.471793,0.3964 -0.325091,0.4527 0.181002,0.0695 0.79549,1.39227 1.927326,4.14898 0.0698,0.1701 -0.15307,0.20869 -0.978,0.16934 l -1.068452,-0.051 -0.642211,-1.58638 c -0.780413,-1.92777 -0.879107,-2.05429 -1.602474,-2.05429 h -0.571933 v 1.86266 1.86267 h -1.016 -1.016 z m 4.065715,-1.083 c 0.871694,-0.78887 0.165906,-1.94578 -1.187049,-1.94578 h -0.846666 v 1.20688 1.20688 l 0.848382,-0.0815 c 0.480173,-0.0461 0.994623,-0.21387 1.185333,-0.38646 z m 3.723615,1.10222 v -4.572 h 1.662596 c 3.105023,0 4.285283,0.69452 4.393423,2.58527 0.10871,1.90072 -0.87211,2.87317 -3.136633,3.10986 l -1.05672,0.11045 v 1.66921 1.66921 h -0.931326 -0.93134 z m 3.345406,-0.51899 c 1.563923,-0.54519 0.859473,-2.52901 -0.89804,-2.52901 h -0.5847 v 1.35467 1.35466 h 0.48273 c 0.2655,0 0.71551,-0.0811 1.00001,-0.18032 z m 3.766593,0.51899 v -4.572 h 2.70934 2.70933 v 0.762 0.762 h -1.778 -1.778 v 1.10067 1.10066 h 1.60867 1.60866 v 0.762 0.762 h -1.60866 -1.60867 v 1.18534 1.18533 h 1.778 1.778 v 0.762 0.762 h -2.70933 -2.70934 z m 6.94267,0 v -4.572 h 1.14503 1.14504 l 1.6393,3.25967 1.6393,3.25966 0.01,-3.25966 0.01,-3.25967 h 0.93133 0.93134 v 4.572 4.572 l -1.143,-1.3e-4 -1.143,-1.3e-4 -1.69334,-3.34421 -1.69333,-3.3442 -0.0459,3.34434 -0.0459,3.34433 h -0.84308 -0.84309 z m 10.83733,0.762 v -3.81 h -1.27 -1.27 v -0.762 -0.762 h 3.56574 3.56574 l -0.0521,0.71967 -0.0521,0.71966 -1.31234,0.0495 -1.31233,0.0495 v 3.80288 3.80288 h -0.93133 -0.93134 z m 5.24934,-0.762 v -4.572 h 2.70933 2.70933 v 0.762 0.762 h -1.69333 -1.69333 v 1.10067 1.10066 h 1.6184 1.6184 l -0.0521,0.71967 -0.0521,0.71967 h -1.56658 -1.56658 l 1.7e-4,1.22174 1.7e-4,1.22174 1.73567,0.0483 1.73567,0.0483 0.0521,0.71967 0.0521,0.71966 h -2.80374 -2.80374 v -4.57199 z m 6.94266,-0.0166 v -4.58861 l 2.24367,0.0589 c 2.55285,0.0671 3.19385,0.29615 3.73457,1.3347 0.5942,1.14127 0.006,2.78623 -1.12497,3.14513 -0.29013,0.0921 -0.29994,0.1272 -0.0712,0.25518 0.20896,0.11694 1.99131,3.98137 1.99131,4.31749 0,0.0451 -0.47434,0.0592 -1.05409,0.0315 l -1.0541,-0.0504 -0.56767,-1.524 c -0.67559,-1.81373 -0.91436,-2.11666 -1.66838,-2.11666 h -0.56642 v 1.86266 1.86267 h -0.93134 -0.93133 v -4.58861 z m 3.89638,-1.08561 c 0.20625,-0.18665 0.33695,-0.52093 0.33695,-0.86175 0,-0.73267 -0.50617,-1.08403 -1.56167,-1.08403 h -0.80899 v 1.20688 1.20688 l 0.84838,-0.0815 c 0.48017,-0.0461 0.99462,-0.21387 1.18533,-0.38646 z m 3.72362,1.10222 v -4.572 h 0.93133 0.93134 v 4.572 4.572 h -0.93134 -0.93133 z m 3.556,0 v -4.572 h 2.70933 2.70934 v 0.762 0.762 h -1.778 -1.778 v 1.10067 1.10067 h 1.60866 1.60867 v 0.762 0.762 h -1.60867 -1.60866 v 1.18533 1.18533 h 1.778 1.778 v 0.762 0.762 h -2.70934 -2.70933 z m 13.88533,3.81 v -0.762 h 0.67734 0.67733 v 0.762 0.762 h -0.67733 -0.67734 z m 8.49927,0.0423 c 0.0518,-0.71617 0.0556,-0.71992 0.77173,-0.77174 l 0.71967,-0.0521 v 0.77174 0.77174 h -0.77174 -0.77173 z m 2.93074,-1.60867 c 0.49504,-1.28058 1.11666,-2.88381 1.38137,-3.56273 l 0.48129,-1.2344 0.83706,0.0491 0.83705,0.0491 0.40982,1.016 c 0.2254,0.5588 0.85127,2.13995 1.39082,3.51366 l 0.981,2.49767 h -0.8083 -0.8083 l -0.35186,-0.84667 -0.35185,-0.84666 h -1.34148 -1.34147 l -0.35186,0.84666 c -0.34783,0.83698 -0.36051,0.84667 -1.10762,0.84667 h -0.75576 z m 3.18572,-1.83422 c -0.4786,-1.42347 -0.51718,-1.42396 -1.04074,-0.0134 -0.48955,1.31893 -0.49878,1.29726 0.55271,1.29726 h 0.9197 l -0.43167,-1.28389 z m 3.67227,3.40056 v -0.762 h 0.67734 0.67733 v 0.762 0.762 h -0.67733 -0.67734 z M 72.011705,105.29514 v -5.08001 h -1.78645 -1.786451 l 0.05079,-0.973665 0.05078,-0.973667 4.699,-0.04501 4.698999,-0.04501 v 1.018679 1.018683 H 76.24504 74.551707 v 5.08 5.08 h -1.27 -1.27 z m 6.604,0.48552 v -4.59448 l 2.159,0.0822 c 3.138591,0.1195 3.939538,0.55557 4.057445,2.20904 0.07419,1.04041 -0.160967,1.57569 -0.91565,2.08427 -0.451727,0.30442 -0.500548,0.39866 -0.30968,0.59775 0.192532,0.20083 1.782218,3.89994 1.782218,4.14712 0,0.0466 -0.467684,0.062 -1.039295,0.0343 l -1.039296,-0.0504 -0.5781,-1.52032 c -0.68936,-1.8129 -0.934051,-2.12035 -1.687554,-2.12035 h -0.566422 v 1.86267 1.86266 h -0.931333 -0.931333 z m 4.016153,-1.04244 c 0.150493,-0.15049 0.273624,-0.50948 0.273624,-0.79775 0,-0.75079 -0.398902,-1.05907 -1.48718,-1.14932 l -0.939931,-0.078 v 1.22727 1.22727 l 0.939931,-0.078 c 0.549129,-0.0455 1.053697,-0.19172 1.213556,-0.35157 z m 3.001624,5.34058 c 0.05386,-0.16298 0.844322,-2.20133 1.756576,-4.52966 l 1.658644,-4.23334 h 1.070097 1.070098 l 0.461019,1.18534 c 0.620437,1.59521 2.892673,7.3949 3.005377,7.67097 0.06942,0.17004 -0.153687,0.20867 -0.978007,0.16933 l -1.067946,-0.051 -0.350485,-0.97859 -0.350484,-0.97859 -1.850487,0.0473 -1.850486,0.0473 -0.34979,0.97367 -0.34979,0.97366 h -0.986135 c -0.863593,0 -0.973965,-0.0368 -0.888201,-0.29633 z m 5.641044,-3.47133 c -0.04258,-0.11642 -0.33232,-0.92899 -0.643875,-1.80573 -0.311553,-0.87673 -0.600173,-1.48633 -0.641375,-1.35466 -0.0412,0.13166 -0.327821,0.94424 -0.636931,1.80572 l -0.562017,1.56634 h 1.280805 c 0.953042,0 1.260995,-0.0542 1.203393,-0.21167 z m 6.085161,2.54 c -0.231706,-0.67522 -0.924386,-2.68478 -1.539296,-4.4657 -0.614912,-1.78092 -1.11802,-3.28588 -1.11802,-3.34434 0,-0.0585 0.442559,-0.1063 0.98347,-0.1063 h 0.98346 l 1.076636,3.34434 c 0.59216,1.83938 1.11811,3.42012 1.1688,3.51276 0.0507,0.0926 0.60067,-1.39327 1.222183,-3.302 l 1.13003,-3.47043 0.94544,-0.0506 0.94543,-0.0506 -0.2297,0.72795 c -0.12633,0.40037 -0.81759,2.4615 -1.53612,4.58029 l -1.30643,3.85233 h -1.152303 -1.1523 z m 5.809153,1.10912 c -1.1e-4,-0.0745 0.77518,-2.1357 1.72287,-4.58045 l 1.72307,-4.44501 h 1.04483 1.04483 l 1.20948,3.09034 c 0.66522,1.69968 1.47201,3.75708 1.79286,4.572 l 0.58336,1.48167 h -1.07511 -1.0751 l -0.32425,-0.97367 -0.32424,-0.97367 -1.84887,-0.0473 -1.84887,-0.0473 -0.35042,0.97859 -0.35042,0.97859 -0.96191,0.0508 c -0.52905,0.0279 -0.962,-0.0102 -0.96211,-0.0847 z m 5.18089,-5.00379 c -0.30911,-0.86148 -0.59639,-1.67603 -0.63839,-1.8101 -0.0585,-0.18677 -1.32497,2.97176 -1.32497,3.30446 0,0.0396 0.56821,0.072 1.26269,0.072 h 1.26269 z m 4.64064,0.55034 v -4.57201 h 0.93133 0.93134 v 4.57201 4.572 h -0.93134 -0.93133 z m 3.38667,0 v -4.57201 l 1.143,0.001 1.143,0.001 1.73187,3.34291 1.73188,3.34289 0.004,-3.35318 0.004,-3.35319 0.889,0.0512 0.889,0.0512 0.0451,4.52968 0.0451,4.52966 h -1.1749 -1.17491 l -1.66419,-3.22289 -1.66419,-3.2229 -0.046,3.2229 -0.046,3.22289 h -0.92768 -0.92768 v -4.572 z m 9.144,0 v -4.57201 h 0.93133 0.93133 v 4.57201 4.572 h -0.93133 -0.93133 z"
       id="path5057"
       inkscape:connector-curvature="0" />
    <path
       style="fill:#045ca7;fill-opacity:1;stroke:#000000;stroke-width:0.44544432;stroke-miterlimit:4;stroke-dasharray:0.89088864, 0.44544432;stroke-dashoffset:0;stroke-opacity:1"
       d="M 108.38028,505.19246 C 88.25394,500.599 73.088918,489.30161 64.728427,472.67341 c -5.73166,-11.3997 -6.105194,-14.1363 -13.162184,-96.42911 -4.174805,-48.68315 -4.175837,-48.19891 0.112878,-52.946 4.886412,-5.40868 0.592198,-4.78087 79.986369,-11.69395 24.83339,-2.16231 48.33682,-3.93148 52.22984,-3.93148 22.13581,0 42.97007,12.8493 53.27559,32.85714 6.27686,12.18633 6.00938,10.3773 12.55435,84.90674 4.52422,51.51843 4.8744,58.02285 3.32357,61.73451 -1.20284,2.8788 -5.29128,6.53382 -8.43799,7.54345 -3.30957,1.0619 -16.07162,2.34278 -68.81127,6.90635 -53.46544,4.62637 -61.0391,5.02757 -67.4193,3.5714 z M 135.118,477.21927 c 1.55345,-0.80264 3.77509,-2.80507 4.93699,-4.44986 l 2.11256,-2.99051 0.2976,-45.33873 0.2976,-45.33873 h 40.7416 40.7416 l 3.37337,-2.16469 c 1.85536,-1.19058 4.21385,-3.3775 5.2411,-4.85982 1.85111,-2.67115 1.86773,-2.81374 1.86773,-16.02474 v -13.32961 l -2.2538,-2.56694 c -4.88735,-5.56638 0.65017,-5.1485 -75.26409,-5.67965 -70.965954,-0.49653 -94.033846,-0.0322 -97.884439,1.97027 -1.153718,0.59998 -2.90124,1.95122 -3.883383,3.00275 l -1.785714,1.91188 v 14.79541 c 0,16.86356 0.08343,17.15834 5.899939,20.84707 l 3.308319,2.09807 h 14.417481 14.417481 l 0.284342,45.61785 0.284343,45.61785 1.991608,2.61113 c 4.155876,5.44864 7.131893,6.13662 25.500623,5.89511 11.02451,-0.14495 12.8726,-0.3404 15.35714,-1.62411 z m 92.11015,0.0329 c 1.57143,-0.8207 3.82143,-2.85732 5,-4.52582 l 2.14286,-3.03363 v -12.61704 c 0,-11.66533 -0.11955,-12.8406 -1.58494,-15.58078 -0.87172,-1.63005 -2.80029,-3.71933 -4.28571,-4.64285 -2.59644,-1.61426 -3.38146,-1.69293 -20.32066,-2.03627 -9.69093,-0.19643 -17.88736,-0.625 -18.21428,-0.95238 -0.71145,-0.71243 -0.79994,-6.58018 -0.10965,-7.27047 0.26661,-0.26661 8.46304,-0.69875 18.21428,-0.9603 19.37835,-0.51977 20.71249,-0.81103 24.01587,-5.24302 2.52578,-3.38871 3.25698,-24.03611 1.10129,-31.09805 -0.38781,-1.27047 -2.02547,-3.44011 -3.63923,-4.82143 l -2.93411,-2.51151 h -36.4944 -36.4944 l -2.68347,2.21195 c -1.47591,1.21658 -3.317,3.45377 -4.09132,4.97155 -1.35024,2.64668 -1.40784,4.36135 -1.40784,41.90795 v 39.14836 l 1.81083,2.66489 c 0.99597,1.46569 3.32633,3.4685 5.17858,4.45068 l 3.36773,1.7858 34.28572,-0.17773 c 33.20407,-0.17212 34.37585,-0.22481 37.14285,-1.66992 z"
       id="path5059"
       inkscape:connector-curvature="0"
       transform="scale(0.26458333)" />
    <path
       style="fill:#281e6e;fill-opacity:1;stroke:#000000;stroke-width:0.44544432;stroke-miterlimit:4;stroke-dasharray:0.89088864, 0.44544432;stroke-dashoffset:0;stroke-opacity:1"
       d="m 99.950558,473.42164 c -1.530435,-0.93317 -2.524988,-2.27963 -3.031731,-4.10447 -0.491229,-1.76897 -0.755524,-17.92131 -0.758119,-46.33209 l -0.004,-43.61637 -1.964286,-1.83146 c -1.93609,-1.80519 -2.174464,-1.83821 -16.607142,-2.30075 -12.415248,-0.39788 -14.907803,-0.66246 -16.384437,-1.73916 -2.911428,-2.12288 -4.46797,-4.77872 -4.864957,-8.30078 l -0.37802,-3.35378 24.563706,0.26908 c 13.51004,0.148 25.119698,0.52738 25.799248,0.84307 0.67955,0.31568 1.96527,1.74744 2.85714,3.18167 l 1.6216,2.6077 0.24702,53.03571 0.24703,53.03572 -4.53274,-0.003 c -3.22861,-0.002 -5.18803,-0.40223 -6.810328,-1.39141 z"
       id="path5061"
       inkscape:connector-curvature="0"
       transform="scale(0.26458333)" />
    <path
       style="fill:#281e6e;fill-opacity:1;stroke:#000000;stroke-width:0.44544432;stroke-miterlimit:4;stroke-dasharray:0.89088864, 0.44544432;stroke-dashoffset:0;stroke-opacity:1"
       d="m 56.340582,348.47116 c 0.538968,-4.01831 1.984101,-6.59287 4.743202,-8.4502 l 2.427059,-1.6338 h 80.445907 80.44591 l 2.63787,2.17435 c 2.56995,2.11837 4.10335,5.50259 4.11221,9.07565 l 0.004,1.60714 H 143.56267 55.968625 Z"
       id="path5063"
       inkscape:connector-curvature="0"
       transform="scale(0.26458333)" />
    <path
       style="fill:#281e6e;fill-opacity:1;stroke:#000000;stroke-width:0.44544432;stroke-miterlimit:4;stroke-dasharray:0.89088864, 0.44544432;stroke-dashoffset:0;stroke-opacity:1"
       d="m 123.36178,427.13716 c 0.0342,-26.22322 0.27592,-50.47388 0.53714,-53.89037 0.44551,-5.82689 0.62738,-6.36908 2.93506,-8.75 l 2.46013,-2.53821 h 51.02839 51.0284 l -0.45834,3.39286 c -0.48747,3.60854 -1.94793,6.09199 -4.77997,8.12818 -1.58872,1.14226 -5.39037,1.30287 -43.31305,1.82985 -32.53059,0.45205 -41.7734,0.77952 -42.5,1.50574 -0.73452,0.73414 -1.00315,10.36057 -1.28567,46.07143 -0.26746,33.80706 -0.57732,45.52761 -1.2339,46.67347 -0.48222,0.84155 -1.87295,2.36834 -3.09052,3.39286 -1.88294,1.58439 -2.8994,1.86276 -6.80182,1.86276 h -4.58805 z"
       id="path5065"
       inkscape:connector-curvature="0"
       transform="scale(0.26458333)" />
    <path
       style="fill:#281e6e;fill-opacity:1;stroke:#000000;stroke-width:0.44544432;stroke-miterlimit:4;stroke-dasharray:0.89088864, 0.44544432;stroke-dashoffset:0;stroke-opacity:1"
       d="m 165.88916,474.83671 -12.05327,-0.45255 -2.41101,-2.63087 -2.41101,-2.63087 0.0426,-36.26049 c 0.0234,-19.94327 0.30427,-37.85572 0.62413,-39.80545 0.45268,-2.75942 1.10995,-3.98609 2.96615,-5.53571 l 2.3846,-1.99076 h 34.8589 34.8589 l 2.52727,2.32143 c 2.55701,2.34875 3.82858,5.72683 3.86328,10.26326 l 0.017,2.22754 -31.44061,0.32055 c -30.30794,0.30901 -31.51094,0.37323 -33.39285,1.78285 l -1.95225,1.4623 0.0581,26.55787 c 0.0525,24.01638 0.1745,26.67438 1.27481,27.77532 1.10388,1.10452 4.20518,1.23722 33.43294,1.43053 l 32.2162,0.21306 -0.45397,4.34334 c -0.47205,4.51635 -2.45026,8.63901 -4.57821,9.54116 -3.14739,1.33434 -37.27071,1.93711 -60.43167,1.06749 z"
       id="path5067"
       inkscape:connector-curvature="0"
       transform="scale(0.26458333)" />
    <path
       style="fill:#281e6e;fill-opacity:1;stroke:#000000;stroke-width:0.44544432;stroke-miterlimit:4;stroke-dasharray:0.89088864, 0.44544432;stroke-dashoffset:0;stroke-opacity:1"
       d="m 200.0853,449.12404 c -20.11098,-0.39599 -20.69853,-0.48983 -23.79416,-3.80005 -1.62415,-1.73673 -1.64764,-1.99015 -1.42857,-15.41071 l 0.22273,-13.64494 2.20571,-2.204 c 1.21315,-1.2122 3.46315,-2.49566 5,-2.85213 1.53686,-0.35646 13.17492,-0.65578 25.86237,-0.66516 l 23.06808,-0.017 -0.46968,2.67857 c -0.58672,3.34603 -1.92007,5.51091 -4.39316,7.13291 -1.66158,1.08977 -4.29863,1.30819 -19.52388,1.61709 -13.16658,0.26714 -17.89111,0.59656 -18.74674,1.30714 -2.87139,2.38462 -3.35801,10.21814 -0.80967,13.03402 1.11339,1.23029 2.32711,1.37832 11.66767,1.42297 5.73376,0.0274 14.03757,0.28535 18.45293,0.57319 7.54349,0.49175 8.15797,0.64793 10.18309,2.58812 1.91839,1.83793 3.55954,5.53269 3.57072,8.03885 0.003,0.655 -1.56589,0.85131 -5.88887,0.73688 -3.24107,-0.0858 -14.57143,-0.32685 -25.17857,-0.53571 z"
       id="path5069"
       inkscape:connector-curvature="0"
       transform="scale(0.26458333)" />
    <path
       style="fill:#281e6e;fill-opacity:1;stroke:#000000;stroke-width:0.15748835;stroke-miterlimit:4;stroke-dasharray:0.3149767, 0.15748835;stroke-dashoffset:0;stroke-opacity:1"
       d="m 272.28631,397.89821 v -19.1929 h -6.69226 -6.69226 l 0.002,-1.8309 c 9.9e-4,-1.007 0.0736,-2.59063 0.16126,-3.51918 l 0.15947,-1.68828 1.54337,-0.13445 c 0.84886,-0.074 8.78806,-0.18234 17.64268,-0.24087 l 16.09931,-0.10643 v 3.76006 3.76005 h -6.43973 -6.43972 v 19.1929 19.1929 h -4.67196 -4.67195 z"
       id="path5071"
       inkscape:connector-curvature="0"
       transform="scale(0.26458333)" />
    <path
       style="fill:#281e6e;fill-opacity:1;stroke:#000000;stroke-width:0.15748835;stroke-miterlimit:4;stroke-dasharray:0.3149767, 0.15748835;stroke-dashoffset:0;stroke-opacity:1"
       d="m 280.13926,475.40816 c -3.41276,-0.38419 -7.95176,-2.41834 -11.05933,-4.95621 -2.77896,-2.26951 -5.49293,-6.58467 -6.48001,-10.30309 -2.17629,-8.19829 0.0281,-18.6754 5.07657,-24.12822 4.74686,-5.12706 11.27794,-7.30695 20.97535,-7.00099 3.29663,0.10401 4.26086,0.22644 5.72877,0.72738 1.28861,0.43976 1.84993,0.77273 2.07972,1.23367 0.38606,0.77443 0.43271,5.63505 0.0608,6.33006 -0.34139,0.63789 -0.72907,0.61452 -3.14785,-0.18974 -1.83858,-0.61135 -2.38374,-0.67313 -6.06091,-0.68685 -3.20665,-0.012 -4.35335,0.0793 -5.55584,0.44232 -5.13589,1.55037 -8.70459,5.84958 -9.85078,11.86723 -1.17038,6.14467 0.29814,12.02314 3.89177,15.57876 3.0722,3.0397 6.53163,4.30241 11.76739,4.29514 2.81482,-0.004 3.68826,-0.12505 8.51103,-1.18039 0.58465,-0.12794 0.70672,-0.0523 0.85248,0.52849 0.0936,0.3728 0.11874,1.92471 0.0559,3.4487 -0.12785,3.10313 -0.26893,3.3891 -1.87092,3.7925 -1.365,0.34373 -12.39207,0.49192 -14.97415,0.20124 z"
       id="path5073"
       inkscape:connector-curvature="0"
       transform="scale(0.26458333)" />
    <path
       style="fill:#281e6e;fill-opacity:1;stroke:#000000;stroke-width:0.15748835;stroke-miterlimit:4;stroke-dasharray:0.3149767, 0.15748835;stroke-dashoffset:0;stroke-opacity:1"
       d="m 326.26342,475.20409 c -0.66136,-0.0986 -1.35633,-0.34444 -1.54438,-0.54622 -0.18806,-0.20178 -0.86596,-1.83211 -1.50644,-3.62295 -0.64049,-1.79084 -1.21392,-3.30547 -1.27429,-3.36584 -0.0604,-0.0604 -3.27974,-0.028 -7.15416,0.072 l -7.04439,0.18171 -1.27275,3.56294 -1.27275,3.56293 -3.57453,0.0701 c -1.96599,0.0385 -3.57484,-0.0183 -3.57521,-0.12627 -3.7e-4,-0.10799 2.92478,-7.71799 6.50033,-16.91112 l 6.50101,-16.71479 1.77029,-0.14017 c 0.97366,-0.0771 2.79681,-0.16947 4.05143,-0.20528 l 2.28113,-0.0651 2.10839,5.42957 c 5.92662,15.26241 9.97699,25.77041 10.39078,26.95709 0.43221,1.23953 0.43439,1.33906 0.034,1.55203 -0.61423,0.32666 -4.0047,0.52029 -5.41842,0.30944 z m -7.63636,-13.3821 c 0.51252,-0.10902 0.78231,-0.33369 0.83396,-0.6945 0.0665,-0.46482 -2.67216,-8.53723 -3.83941,-11.31682 -0.36096,-0.85954 -0.46556,-0.94509 -0.77195,-0.63134 -0.44394,0.45461 -1.53432,3.19282 -3.43796,8.63355 l -1.48002,4.23002 3.96888,-0.0299 c 2.18289,-0.0164 4.30981,-0.1024 4.7265,-0.19103 z"
       id="path5075"
       inkscape:connector-curvature="0"
       transform="scale(0.26458333)" />
    <path
       style="fill:#281e6e;fill-opacity:1;stroke:#000000;stroke-width:0.15748835;stroke-miterlimit:4;stroke-dasharray:0.3149767, 0.15748835;stroke-dashoffset:0;stroke-opacity:1"
       d="m 297.28758,399.81301 v -17.2781 l 2.96733,0.11485 c 12.97929,0.50236 16.37463,1.15261 18.4744,3.53808 1.26953,1.44227 1.66551,2.90552 1.66551,6.15453 0,2.4454 -0.0546,2.74462 -0.70263,3.84696 -0.40072,0.68169 -1.45873,1.79858 -2.46225,2.59927 -0.96778,0.77218 -1.75961,1.47822 -1.75961,1.56898 0,0.0908 0.50129,1.13711 1.11398,2.32522 1.94912,3.77972 6.13973,13.80477 5.8794,14.0651 -0.14115,0.14115 -7.28313,0.13763 -7.42442,-0.004 -0.049,-0.049 -0.82982,-2.00815 -1.73517,-4.35367 -3.25581,-8.43497 -3.83907,-9.19627 -7.19443,-9.39051 l -2.00358,-0.11598 v 7.10351 7.10352 h -3.40926 -3.40927 z m 11.42836,-2.69126 c 3.4465,-0.4821 4.434,-1.32701 4.64932,-3.97797 0.13138,-1.61752 -0.34947,-2.83628 -1.43046,-3.62564 -0.7294,-0.53261 -3.35871,-1.1033 -5.99778,-1.30181 l -1.83091,-0.13772 v 4.78574 4.78573 l 1.4521,-0.14487 c 0.79865,-0.0797 2.21963,-0.25224 3.15773,-0.38346 z"
       id="path5077"
       inkscape:connector-curvature="0"
       transform="scale(0.26458333)" />
    <path
       style="fill:#281e6e;fill-opacity:1;stroke:#000000;stroke-width:0.15748835;stroke-miterlimit:4;stroke-dasharray:0.3149767, 0.15748835;stroke-dashoffset:0;stroke-opacity:1"
       d="m 324.24603,416.92072 c -0.24307,-0.0656 -0.44194,-0.31994 -0.44194,-0.56529 0,-0.40415 3.06449,-8.38821 10.23463,-26.66471 l 2.57593,-6.56599 h 3.99019 3.99019 l 6.55443,16.74289 c 3.60494,9.2086 6.51144,16.78589 6.45889,16.83844 -0.16438,0.16438 -1.75377,0.22496 -4.6674,0.17789 l -2.8092,-0.0454 -1.33162,-3.75577 -1.33162,-3.75578 -5.07681,0.10085 c -2.79225,0.0555 -5.98931,0.16269 -7.10458,0.23827 l -2.02775,0.13742 -1.28838,3.58064 -1.28837,3.58064 -2.99732,0.0375 c -1.64853,0.0206 -3.1962,-0.0161 -3.43927,-0.0817 z m 20.39676,-13.377 c 0.20598,-0.079 0.3745,-0.29888 0.3745,-0.48854 0,-0.45574 -3.03907,-8.92125 -3.8685,-10.77594 -0.35717,-0.79866 -0.7521,-1.4521 -0.87762,-1.4521 -0.28301,0 -4.817,12.66681 -4.64597,12.97965 0.12872,0.23546 8.34291,-0.004 9.01759,-0.26307 z"
       id="path5079"
       inkscape:connector-curvature="0"
       transform="scale(0.26458333)" />
    <path
       style="fill:#281e6e;fill-opacity:1;stroke:#000000;stroke-width:0.15748835;stroke-miterlimit:4;stroke-dasharray:0.3149767, 0.15748835;stroke-dashoffset:0;stroke-opacity:1"
       d="m 334.91577,457.98011 v -17.19476 l 5.11389,0.16376 c 7.30618,0.23396 11.76067,0.57692 13.25417,1.02044 3.98076,1.18216 6.47792,5.89953 5.28641,9.98653 -0.58602,2.0101 -1.68726,3.56921 -3.56122,5.0419 -1.73667,1.36479 -1.93176,1.7277 -1.23604,2.29921 0.23207,0.19063 1.02365,1.59666 1.75908,3.12451 1.80542,3.75078 5.37588,12.32749 5.23009,12.56338 -0.14662,0.23723 -5.16359,0.22339 -6.52455,-0.018 -1.00678,-0.17857 -1.00824,-0.18056 -2.08442,-2.8265 -2.99367,-7.36037 -3.74463,-8.96538 -4.63047,-9.8966 -0.91034,-0.95697 -0.91569,-0.95869 -2.97139,-0.95869 h -2.05941 v 6.9448 6.9448 h -3.78807 -3.78807 z m 13.19309,-2.92323 c 1.72611,-0.51218 2.61201,-1.16244 3.2276,-2.3691 0.8798,-1.72454 0.4855,-3.37957 -1.12054,-4.7034 -1.24387,-1.0253 -2.34145,-1.34269 -5.26176,-1.52152 l -2.46225,-0.15077 v 4.7434 4.74341 l 2.14455,-0.17401 c 1.1795,-0.0957 2.74208,-0.35131 3.4724,-0.56801 z"
       id="path5081"
       inkscape:connector-curvature="0"
       transform="scale(0.26458333)" />
    <path
       style="fill:#281e6e;fill-opacity:1;stroke:#000000;stroke-width:0.15748835;stroke-miterlimit:4;stroke-dasharray:0.3149767, 0.15748835;stroke-dashoffset:0;stroke-opacity:1"
       d="m 367.27827,410.20785 c -6.87109,-20.01858 -9.18518,-26.9849 -9.01923,-27.15141 0.101,-0.10134 1.72718,-0.18425 3.61373,-0.18425 h 3.43009 l 0.95103,2.90419 c 0.52307,1.5973 2.40156,7.36679 4.17442,12.82109 1.8299,5.62973 3.33877,9.87903 3.49027,9.8293 0.45871,-0.15055 1.59009,-3.22913 5.30778,-14.4429 l 3.60011,-10.85914 2.24548,-0.1948 c 1.23501,-0.10714 2.78994,-0.16397 3.45539,-0.12627 l 1.20991,0.0685 -5.53952,16.41498 c -3.04673,9.02824 -5.66235,16.72749 -5.81248,17.10946 l -0.27296,0.69448 -4.23626,-0.002 -4.23627,-0.002 z"
       id="path5083"
       inkscape:connector-curvature="0"
       transform="scale(0.26458333)" />
    <path
       style="fill:#281e6e;fill-opacity:1;stroke:#000000;stroke-width:0.15748835;stroke-miterlimit:4;stroke-dasharray:0.3149767, 0.15748835;stroke-dashoffset:0;stroke-opacity:1"
       d="m 364.46273,458.10626 v -17.06862 l 6.37659,0.10053 c 7.03215,0.11086 8.97142,0.40195 11.55362,1.73425 1.65253,0.85263 2.2333,1.32372 3.08568,2.50296 1.11722,1.54561 1.56925,3.37684 1.55846,6.31345 -0.0125,3.41323 -0.60883,5.08943 -2.47327,6.95249 -2.19556,2.19392 -5.61571,3.37203 -11.01564,3.79446 l -2.26691,0.17734 v 6.28088 6.28088 h -3.40927 -3.40926 z m 10.71604,-1.38227 c 4.28078,-0.74546 6.14692,-3.55464 4.56954,-6.87872 -0.53408,-1.1255 -2.05868,-2.38896 -3.46908,-2.87488 -0.56418,-0.19437 -1.91952,-0.42233 -3.01187,-0.50656 l -1.9861,-0.15316 v 5.34073 5.34073 h 1.17887 c 0.64838,0 1.87177,-0.12066 2.71864,-0.26814 z"
       id="path5085"
       inkscape:connector-curvature="0"
       transform="scale(0.26458333)" />
    <path
       style="fill:#281e6e;fill-opacity:1;stroke:#000000;stroke-width:0.15748835;stroke-miterlimit:4;stroke-dasharray:0.3149767, 0.15748835;stroke-dashoffset:0;stroke-opacity:1"
       d="m 415.14495,413.4582 -1.20132,-3.63291 -1.82262,-0.14594 c -1.00243,-0.0803 -4.19647,-0.17849 -7.09785,-0.21829 l -5.27525,-0.0724 -1.31787,3.66181 -1.31787,3.6618 -3.56951,0.0701 -3.56952,0.0701 0.8606,-2.37745 c 0.83637,-2.31049 8.8717,-23.23984 11.06662,-28.82485 l 1.09173,-2.77792 3.9057,-0.0648 3.90569,-0.0648 6.71804,17.17426 6.71805,17.17426 h -3.94665 -3.94664 z m -3.45598,-9.68848 c 0.003,-0.34959 -4.36638,-12.56089 -4.5796,-12.79888 -0.3858,-0.43063 -4.58473,9.65577 -4.94572,11.88027 l -0.13519,0.83311 1.98839,0.0866 c 4.16586,0.1815 7.67057,0.18098 7.67212,-0.001 z"
       id="path5087"
       inkscape:connector-curvature="0"
       transform="scale(0.26458333)" />
    <path
       style="fill:#281e6e;fill-opacity:1;stroke:#000000;stroke-width:0.15748835;stroke-miterlimit:4;stroke-dasharray:0.3149767, 0.15748835;stroke-dashoffset:0;stroke-opacity:1"
       d="m 391.23177,458.12855 v -17.04632 h 10.2278 10.22779 v 2.64753 2.64752 l -6.75539,0.0673 -6.7554,0.0673 -0.0692,4.23001 -0.0692,4.23002 h 6.06702 6.06702 v 2.77792 2.77792 h -6.06661 -6.06661 l 0.0688,4.60882 0.0688,4.60882 6.7554,0.0673 6.75539,0.0673 v 2.64752 2.64753 h -10.22779 -10.2278 z"
       id="path5089"
       inkscape:connector-curvature="0"
       transform="scale(0.26458333)" />
    <path
       style="fill:#281e6e;fill-opacity:1;stroke:#000000;stroke-width:0.15748835;stroke-miterlimit:4;stroke-dasharray:0.3149767, 0.15748835;stroke-dashoffset:0;stroke-opacity:1"
       d="m 427.09219,399.91851 v -17.17259 h 3.40926 3.40927 v 17.17259 17.1726 h -3.40927 -3.40926 z"
       id="path5091"
       inkscape:connector-curvature="0"
       transform="scale(0.26458333)" />
    <path
       style="fill:#281e6e;fill-opacity:1;stroke:#000000;stroke-width:0.15748835;stroke-miterlimit:4;stroke-dasharray:0.3149767, 0.15748835;stroke-dashoffset:0;stroke-opacity:1"
       d="m 417.49574,458.12855 v -17.04632 h 4.27383 4.27383 l 6.09549,12.0587 c 3.35252,6.63228 6.20227,12.16665 6.33277,12.2986 0.14805,0.14969 0.23728,-4.38507 0.23728,-12.05869 v -12.29861 h 3.40927 3.40926 v 17.04632 17.04633 h -4.29214 -4.29213 l -3.05892,-6.12405 c -1.6824,-3.36823 -4.55232,-9.02193 -6.3776,-12.56377 l -3.31868,-6.43973 -0.1546,5.17704 c -0.085,2.84736 -0.17026,8.50106 -0.1894,12.56377 l -0.0348,7.38674 h -3.15673 -3.15672 z"
       id="path5093"
       inkscape:connector-curvature="0"
       transform="scale(0.26458333)" />
    <path
       style="fill:#281e6e;fill-opacity:1;stroke:#000000;stroke-width:0.15748835;stroke-miterlimit:4;stroke-dasharray:0.3149767, 0.15748835;stroke-dashoffset:0;stroke-opacity:1"
       d="m 439.97163,399.91851 v -17.17259 l 4.23002,7.6e-4 4.23001,7.7e-4 6.56599,12.68523 6.56599,12.68523 0.0655,-12.72276 0.0655,-12.72277 3.21188,0.17845 c 1.76653,0.0982 3.23109,0.19993 3.25458,0.22618 0.0235,0.0262 0.12636,7.6929 0.2286,17.03701 l 0.18589,16.9893 -4.37613,-0.0692 -4.37614,-0.0692 -6.2009,-12.05102 c -3.41049,-6.62806 -6.28612,-12.05447 -6.3903,-12.05869 -0.10417,-0.004 -0.1894,1.50792 -0.1894,3.36032 0,1.8524 -0.0752,7.30722 -0.16717,12.12183 l -0.16716,8.75383 H 443.34 439.97163 Z"
       id="path5095"
       inkscape:connector-curvature="0"
       transform="scale(0.26458333)" />
    <path
       style="fill:#281e6e;fill-opacity:1;stroke:#000000;stroke-width:0.15748835;stroke-miterlimit:4;stroke-dasharray:0.3149767, 0.15748835;stroke-dashoffset:0;stroke-opacity:1"
       d="m 474.39931,399.91851 v -17.17259 h 3.40926 3.40927 v 17.17259 17.1726 h -3.40927 -3.40926 z"
       id="path5097"
       inkscape:connector-curvature="0"
       transform="scale(0.26458333)" />
    <path
       style="fill:#281e6e;fill-opacity:1;stroke:#000000;stroke-width:0.15748835;stroke-miterlimit:4;stroke-dasharray:0.3149767, 0.15748835;stroke-dashoffset:0;stroke-opacity:1"
       d="m 458.48941,460.7802 v -14.39467 h -4.79823 -4.79822 v -2.65165 -2.65165 h 13.36812 13.36812 l -0.1417,2.33598 c -0.0779,1.28479 -0.2297,2.43261 -0.33725,2.55073 -0.10755,0.11812 -1.88309,0.26486 -3.94565,0.3261 -2.06255,0.0612 -4.23307,0.17044 -4.82338,0.24266 l -1.07328,0.13132 v 14.25293 14.25293 h -3.40927 -3.40926 z"
       id="path5099"
       inkscape:connector-curvature="0"
       transform="scale(0.26458333)" />
    <path
       style="fill:#281e6e;fill-opacity:1;stroke:#000000;stroke-width:0.15748835;stroke-miterlimit:4;stroke-dasharray:0.3149767, 0.15748835;stroke-dashoffset:0;stroke-opacity:1"
       d="m 478.43992,458.12855 v -17.04632 h 10.10152 10.10153 v 2.64731 2.64732 l -6.37659,0.0675 -6.37659,0.0675 -0.0692,4.23001 -0.0692,4.23002 h 6.15622 6.15622 l -0.0978,1.32582 c -0.0538,0.72921 -0.15892,1.92245 -0.23364,2.65165 l -0.13586,1.32583 H 491.68 485.76353 v 4.63891 4.63892 l 0.94701,0.15653 c 0.52086,0.0861 2.53801,0.15846 4.48256,0.16082 1.94454,0.002 4.46859,0.0769 5.60899,0.16571 l 2.07347,0.16142 0.12738,1.03662 c 0.0701,0.57015 0.16913,1.69007 0.22015,2.48872 l 0.0928,1.4521 h -10.43798 -10.43797 z"
       id="path5101"
       inkscape:connector-curvature="0"
       transform="scale(0.26458333)" />
    <path
       style="fill:#281e6e;fill-opacity:1;stroke:#000000;stroke-width:0.15748835;stroke-miterlimit:4;stroke-dasharray:0.3149767, 0.15748835;stroke-dashoffset:0;stroke-opacity:1"
       d="M 504.70389,457.98619 V 440.7975 l 5.24016,0.15634 c 6.35153,0.1895 10.37044,0.52586 12.0587,1.00923 2.91054,0.83334 4.77721,2.821 5.57544,5.93683 0.98124,3.83015 -1.16142,8.43705 -4.52075,9.71999 -0.64953,0.24806 -1.18096,0.5044 -1.18096,0.56965 0,0.0652 0.29909,0.47409 0.66464,0.90852 0.75303,0.89493 3.92789,7.36844 5.8411,11.90994 1.95721,4.64595 2.08944,4.16688 -1.15018,4.16688 -1.51783,0 -3.27793,-0.071 -3.91133,-0.15785 l -1.15165,-0.15785 -1.67441,-4.45097 c -3.0486,-8.10389 -3.84341,-9.12293 -7.11555,-9.12293 h -1.85668 v 6.9448 6.9448 h -3.40927 -3.40926 z m 10.43796,-2.5162 c 3.87561,-0.56032 5.33464,-1.8463 5.34178,-4.7082 0.007,-2.92588 -1.53775,-4.00682 -6.12016,-4.28174 l -2.84105,-0.17045 v 4.70992 4.70992 l 0.94701,-0.005 c 0.52086,-0.003 1.72345,-0.11726 2.67242,-0.25445 z"
       id="path5103"
       inkscape:connector-curvature="0"
       transform="scale(0.26458333)" />
    <path
       style="fill:#281e6e;fill-opacity:1;stroke:#000000;stroke-width:0.15748835;stroke-miterlimit:4;stroke-dasharray:0.3149767, 0.15748835;stroke-dashoffset:0;stroke-opacity:1"
       d="m 533.49323,458.12855 v -17.04632 h 3.40927 3.40926 v 17.04632 17.04633 h -3.40926 -3.40927 z"
       id="path5105"
       inkscape:connector-curvature="0"
       transform="scale(0.26458333)" />
    <path
       style="fill:#281e6e;fill-opacity:1;stroke:#000000;stroke-width:0.15748835;stroke-miterlimit:4;stroke-dasharray:0.3149767, 0.15748835;stroke-dashoffset:0;stroke-opacity:1"
       d="m 546.87775,458.12855 v -17.04632 h 10.10153 10.10153 v 2.65165 2.65165 h -6.69227 -6.69226 v 4.29315 4.29315 h 6.06092 6.06091 v 2.77792 2.77792 h -6.06091 -6.06092 v 4.67195 4.67196 h 6.69226 6.69227 v 2.65165 2.65165 h -10.10153 -10.10153 z"
       id="path5107"
       inkscape:connector-curvature="0"
       transform="scale(0.26458333)" />
    <path
       style="fill:#281e6e;fill-opacity:1;stroke:#000000;stroke-width:0.15748835;stroke-miterlimit:4;stroke-dasharray:0.3149767, 0.15748835;stroke-dashoffset:0;stroke-opacity:1"
       d="m 582.49586,475.65069 c -2.0135,-0.30417 -2.80634,-0.67016 -3.21898,-1.48596 -0.42242,-0.83514 -0.43048,-3.44361 -0.0111,-3.59685 0.17362,-0.0634 0.99753,0.0411 1.8309,0.23239 2.37075,0.54409 5.29904,0.70188 6.18847,0.33347 1.28581,-0.5326 2.01902,-1.62759 2.01902,-3.01525 0,-1.72558 -0.54328,-2.26363 -4.10802,-4.0684 -5.70834,-2.89004 -6.87654,-4.17814 -6.85903,-7.56303 0.0293,-5.67026 3.73198,-8.59642 10.46197,-8.26795 2.92192,0.1426 4.67882,0.67536 4.93991,1.49797 0.21191,0.66767 -0.0792,2.54732 -0.47917,3.09438 -0.29914,0.40909 -0.40754,0.40915 -1.94681,10e-4 -2.46921,-0.65455 -4.23861,-0.58737 -5.60395,0.21278 -2.0285,1.18878 -2.51805,2.76063 -1.30777,4.19896 0.40334,0.47934 1.9617,1.42807 4.07626,2.48162 5.4677,2.72423 6.68777,4.16784 6.69681,7.92379 0.009,3.67962 -1.91572,6.30913 -5.49139,7.50276 -1.85924,0.62065 -5.00671,0.84759 -7.18711,0.51821 z"
       id="path5109"
       inkscape:connector-curvature="0"
       transform="scale(0.26458333)" />
    <path
       style="fill:#281e6e;fill-opacity:1;stroke:#000000;stroke-width:0.15748835;stroke-miterlimit:4;stroke-dasharray:0.3149767, 0.15748835;stroke-dashoffset:0;stroke-opacity:1"
       d="m 599.40569,472.52323 v -2.65165 h 2.39911 2.39911 v 2.65165 2.65165 h -2.39911 -2.39911 z"
       id="path5111"
       inkscape:connector-curvature="0"
       transform="scale(0.26458333)" />
    <path
       style="fill:#281e6e;fill-opacity:1;stroke:#000000;stroke-width:0.15748835;stroke-miterlimit:4;stroke-dasharray:0.3149767, 0.15748835;stroke-dashoffset:0;stroke-opacity:1"
       d="m 609.50721,483.2754 c -0.32715,-0.21866 -0.39025,-2.11399 -0.46275,-13.89957 l -0.0839,-13.64639 h 1.93145 c 2.02299,0 2.9084,0.27179 2.9084,0.89277 0,0.58952 0.90861,0.43354 2.59885,-0.44614 1.97919,-1.03005 4.25158,-1.2327 6.28201,-0.56021 1.8233,0.60389 3.9889,2.7927 4.73435,4.78511 2.11069,5.64132 0.23736,12.24078 -4.14503,14.60231 -1.57074,0.84643 -4.76904,0.76959 -6.90903,-0.16599 -0.88315,-0.3861 -1.6575,-0.65024 -1.72076,-0.58698 -0.0633,0.0633 -0.20074,2.05689 -0.30549,4.43028 -0.10475,2.37339 -0.277,4.40179 -0.38276,4.50755 -0.29848,0.29848 -4.01996,0.37152 -4.44529,0.0873 z m 11.02457,-12.2223 c 1.50626,-0.99644 2.3141,-2.8434 2.33933,-5.3484 0.029,-2.88286 -0.73495,-4.68616 -2.48498,-5.8655 -1.6472,-1.11005 -3.90372,-0.47854 -5.00504,1.40071 -0.57028,0.97312 -0.69406,1.52559 -0.7795,3.47914 -0.1269,2.90132 0.35279,4.53878 1.73433,5.92032 1.359,1.359 2.58432,1.47982 4.19586,0.41373 z"
       id="path5113"
       inkscape:connector-curvature="0"
       transform="scale(0.26458333)" />
    <path
       style="fill:#281e6e;fill-opacity:1;stroke:#000000;stroke-width:0.15748835;stroke-miterlimit:4;stroke-dasharray:0.3149767, 0.15748835;stroke-dashoffset:0;stroke-opacity:1"
       d="m 631.39169,473.21771 c 0.0879,-1.07645 0.25109,-2.20504 0.36272,-2.50798 0.20936,-0.56817 0.46151,-0.63225 3.7011,-0.94067 l 1.32582,-0.12622 v 2.76602 2.76602 h -2.7747 -2.7747 z"
       id="path5115"
       inkscape:connector-curvature="0"
       transform="scale(0.26458333)" />
    <path
       style="fill:#281e6e;fill-opacity:1;stroke:#000000;stroke-width:0.15748835;stroke-miterlimit:4;stroke-dasharray:0.3149767, 0.15748835;stroke-dashoffset:0;stroke-opacity:1"
       d="m 639.30671,475.06495 c 0,-0.0605 1.99806,-5.25958 4.44012,-11.55362 2.44207,-6.29403 4.72808,-12.21078 5.08002,-13.14832 0.73165,-1.94902 0.40004,-1.83748 4.5805,-1.54074 l 2.30893,0.16389 4.41084,11.13719 c 2.42597,6.12545 4.74439,11.9895 5.15207,13.03122 l 0.74122,1.89404 -2.67088,0.0722 c -1.46899,0.0397 -2.80231,0.0217 -2.96294,-0.0399 -0.16064,-0.0616 -0.84917,-1.48622 -1.53008,-3.16574 l -1.23801,-3.05368 h -5.12948 -5.12949 l -0.51549,1.19956 c -1.46064,3.39889 -2.11109,4.66041 -2.51415,4.87613 -0.43173,0.23105 -5.02318,0.34791 -5.02318,0.12784 z m 15.50551,-14.60042 c -0.76456,-2.25706 -1.61794,-4.33103 -1.89639,-4.60882 -0.50006,-0.49888 -0.51072,-0.49908 -0.86991,-0.0157 -0.44714,0.60176 -2.24076,5.15071 -2.68333,6.80542 -0.47168,1.76355 -0.16158,1.92283 3.74351,1.92283 h 3.09625 z"
       id="path5117"
       inkscape:connector-curvature="0"
       transform="scale(0.26458333)" />
    <path
       style="fill:#281e6e;fill-opacity:1;stroke:#000000;stroke-width:0.15748835;stroke-miterlimit:4;stroke-dasharray:0.3149767, 0.15748835;stroke-dashoffset:0;stroke-opacity:1"
       d="m 668.3486,472.52323 v -2.65165 h 2.52538 2.52538 v 2.65165 2.65165 h -2.52538 -2.52538 z"
       id="path5119"
       inkscape:connector-curvature="0"
       transform="scale(0.26458333)" />
  </g>
</svg>
